
	<svg xmlns="http://www.w3.org/2000/svg" xmlns:xlink="http://www.w3.org/1999/xlink" version="1.1" width="128" height="128" viewBox="0 0 100 100">


		<defs>
			<g id="background">
<path fill="url(#background-gradient)" stroke="none" d=" M 90.75 23.05 Q 89.5 23.05 88.85 24.15 88.15 25.25 88.85 26.35 97.25 40.2 95.15 56.15 93.05 71.65 81.75 82.6 70.35 93.7 54.9 95.25 32.95 97.55 17.6 81.85 2.2 66.2 4.85 44.2 6.6 30.2 16.15 19.7 25.65 9.1 39.25 5.8 50.55 3 61.7 5.95 62.85 6.3 63.7 5.65 64.6 5 64.6 3.85 64.6 2.25 62.95 1.7 52.55 -1.1 41.6 0.65 25.55 3.3 14.4 14.85 3.1 26.25 0.65 42.4 -2.95 66.9 14 84.5 30.85 102.1 55.2 99.7 72.6 97.9 85.2 85.4 97.95 72.8 99.7 55.35 101.45 38.55 92.75 24.05 92.05 23.05 90.75 23.05 Z"/>
</g><mask id="mask">
<path fill="#FFFFFF" stroke="none" d=" M 82.2 82.15 Q 95.5 68.85 95.5 49.95 95.5 31.1 82.2 17.8 68.85 4.5 50 4.5 31.15 4.5 17.8 17.8 4.5 31.1 4.5 49.95 4.5 68.85 17.8 82.15 31.15 95.45 50 95.45 68.85 95.45 82.2 82.15 Z"/>
</mask>
			
	<linearGradient id="background-gradient" x1="0" y1="0" y2="1" x2="0" >
		<stop stop-color="#ffffff" offset="0%"/>
		<stop stop-color="#ffffff" offset="100%"/>
	</linearGradient>

			
			
			<g transform="scale(0.3370907651450124) translate(-2.8450000286102295 -1.5709915161132812)" id="picture"><path d="M45.365 223.592h119.791v28.62H2.845v-25.758L115.686 76.817H4.48V47.789h154.952v24.94L45.365 223.591z M214.604 202.09l49.892-154.504h35.005L227.48 248.762h-26.153L128.5 47.586h35.005l51.098 154.504z"/></g>
			
	<linearGradient id="picture-gradient" x1="0" y1="0" y2="1" x2="0" >
		<stop stop-color="#ffffff" offset="0%"/>
		<stop stop-color="#ffffff" offset="100%"/>
	</linearGradient>

		</defs>

		

			<use xlink:href="#background" fill="url(#background-gradient)" />

		

			<g mask="url(#mask)">
				<g transform="
				        translate(
                                50 50
)
                            translate(0 0)  scale(0.65)  
                            translate(
                                -50 -50
)">
						<use xlink:href="#picture" fill="url(#picture-gradient)"  />
				</g>
			</g>

		



	</svg>
